# Made in Blockbench 4.9.2
mtllib model.mtl

o cuboid
v 0 0.5 0.3125
v 0.3125 0 0.3125
v -0.3125 0.5 0.3125
v -0.125 0 0.3125
v 0.3125 0.5 0.1875
v 0.3125 0 -0.3125
v -0.1875 0.5 -0.25
v -0.3125 0 -0.3125
vt 0.3184730048932193 0.7425796690727778
vt 0.1622230048932193 0.9925796690727778
vt 0.005973004893219308 0.9925796690727778
vt 0.09972300489321931 0.7425796690727778
vt 0.2939812794936569 0.5640709172345431
vt 0 0.71875
vt 0 0.375
vt 0.2657479306158683 0.375
vt 0.3303468323097414 1
vt 0.1622230048932193 0.9925796690727778
vt 0.31847328495792626 0.7425792209692469
vt 0.4315269951067807 0.8132390906693243
vt 0.65625 0.40625
vt 0.65625 0.71875
vt 0.4375 0.71875
vt 0.34375 0.40625
vt 0.5625 0.2993316224561591
vt 0.665391344979456 0.18174151390820947
vt 0.8125 0.10530794335204219
vt 0.8125 0.4375
vn 0 0 1
vn 0.5261522196019802 0.6013168224022631 -0.6013168224022631
vn 0.3617725053169077 0.22610781582306733 0.9044312632922693
vn 0 -1 0
vn 0 1 0
usemtl m_bf57d098-1ca7-411e-c267-132982c75bc4
f 2/1/1 1/2/1 3/3/1 4/4/1
f 7/5/2 5/6/2 6/7/2 8/8/2
f 5/9/3 1/10/3 2/11/3 6/12/3
f 6/13/4 2/14/4 4/15/4 8/16/4
f 3/17/5 1/18/5 5/19/5 7/20/5
o pyramid
v -0.3125 0.5 0.3125
v -0.125 0 0.3125
v -0.3125 0 -0.3125
vt 0 0.6876515858953997
vt 0.4331213564999317 0.19960793042468084
vt 0.43312135649993183 1
vn 0.9014406392009666 0.33804023970036245 -0.27043219176029
usemtl m_d13c967c-52ab-e56f-634e-00bae35a1151
f 10/21/6 11/22/6 9/23/6
o pyramid
v -0.1875 0.5 -0.25
v -0.3125 0.5 0.3125
v -0.3125 0 -0.3125
vt 0.5020364945116361 0.9878918835580637
vt 0.5020364945116357 0.1875
vt 0.875 0.5486499522732293
vn 0.9421630606623848 -0.2617119612951069 0.2093695690360855
usemtl m_d13c967c-52ab-e56f-634e-00bae35a1151
f 13/24/7 14/25/7 12/26/7